<svg id="Capa_1" enable-background="new 0 0 512 512" height="512" viewBox="0 0 512 512" width="512" xmlns="http://www.w3.org/2000/svg"><g><path d="m483.974 428.683c-3.229 4.262-6.569 8.451-10.049 12.541-13.565 15.947-28.766 30.254-45.254 42.744l16.58 16.58c7.623 7.623 17.635 11.434 27.648 11.434 10.011 0 20.024-3.811 27.646-11.432 15.244-15.244 15.244-40.05 0-55.297z"/><path d="m451.073 421.785c39.289-46.187 60.927-105.064 60.927-165.785 0-68.382-26.629-132.67-74.981-181.021-48.349-48.35-112.636-74.979-181.01-74.979-.004 0-.003 0-.008 0-.004 0-.003 0-.008 0-68.375 0-132.662 26.629-181.011 74.979-48.351 48.351-74.981 112.639-74.982 181.021.001 60.724 21.641 119.603 60.932 165.79 29.694 34.908 68.107 61.066 110.806 75.977.026-.078.046-.156.072-.235l9.586-28.748c1.882-5.647 4.995-10.939 8.96-15.618-82.511-27.542-142.157-105.517-142.157-197.168 0-114.582 93.22-207.801 207.801-207.801s207.801 93.219 207.801 207.801c0 91.651-59.646 169.626-142.156 197.167 3.966 4.68 7.078 9.973 8.96 15.621l9.582 28.741c.027.08.047.16.074.241 42.701-14.912 81.117-41.074 110.812-75.983z"/><path d="m247.966 335.264c-.549 0-1.066.52-1.066 1.068v32.135c0 .547.518 1.065 1.066 1.065h16.067c.548 0 1.066-.518 1.066-1.065v-32.135c0-.549-.518-1.068-1.066-1.068z"/><path d="m271 398.733v34.427c91.046-7.643 162.801-84.175 162.801-177.162 0-98.04-79.761-177.801-177.801-177.801s-177.801 79.761-177.801 177.801c0 92.987 71.755 169.52 162.801 177.162v-34.427c-13.786-3.171-24.101-15.533-24.101-30.267v-32.135c0-17.131 13.936-31.068 31.066-31.068h16.067c17.13 0 31.066 13.938 31.066 31.068v32.135c.002 14.734-10.313 27.095-24.098 30.267z"/><path d="m38.081 441.228c-3.481-4.093-6.824-8.283-10.055-12.548l-16.572 16.572c-15.246 15.247-15.246 40.054 0 55.297 7.621 7.622 17.633 11.433 27.644 11.433 10.014-.001 20.027-3.812 27.65-11.434l16.58-16.58c-16.485-12.489-31.684-26.795-45.247-42.74z"/><path d="m53.769 53.765c8.159-8.158 16.73-15.753 25.654-22.785-3.49-1.008-7.141-1.537-10.875-1.537-10.443 0-20.262 4.066-27.653 11.454-10.402 10.407-13.696 25.267-9.892 38.499 7.027-8.917 14.615-17.48 22.766-25.631z"/><path d="m480.997 79.394c3.803-13.232.508-28.092-9.897-38.502-7.387-7.383-17.205-11.449-27.648-11.449-3.734 0-7.384.529-10.875 1.537 8.926 7.032 17.496 14.627 25.655 22.785 8.151 8.15 15.738 16.713 22.765 25.629z"/><path d="m282.066 463.799h-52.134c-7.84 0-17.598 7.033-20.078 14.472l-9.236 27.704c.305.066 23.555 6.026 55.381 6.026 31.954 0 55.084-5.96 55.381-6.025l-9.236-27.703c-2.479-7.442-12.236-14.474-20.078-14.474z"/></g></svg>