<?xml version="1.0"?>
<svg xmlns="http://www.w3.org/2000/svg" xmlns:xlink="http://www.w3.org/1999/xlink" xmlns:svgjs="http://svgjs.com/svgjs" version="1.1" width="512" height="512" x="0" y="0" viewBox="0 0 512 512" style="enable-background:new 0 0 512 512" xml:space="preserve" class=""><g>
<g xmlns="http://www.w3.org/2000/svg">
	<g>
		<path d="M433.58,204.141c-47.53-12.266-110.597-19.02-177.586-19.02s-130.056,6.755-177.586,19.02    C42.64,213.372,0,229.992,0,256.749v152.302v29.251c0,26.757,42.64,43.378,78.41,52.609c47.53,12.266,110.597,19.02,177.586,19.02    c66.989,0,130.056-6.755,177.586-19.02c35.77-9.231,78.41-25.851,78.41-52.609v-29.251v-2.632V256.749    C511.99,229.992,469.35,213.372,433.58,204.141z M15.003,282.421c7.105,5.631,16.207,10.512,26.145,14.708v17.703    c-18.713-8.803-26.145-17.511-26.145-24.015V282.421z M41.148,462.317c-18.713-8.802-26.145-17.51-26.145-24.014v-3.579    c7.105,5.63,16.207,10.512,26.145,14.707V462.317z M137.34,487.102c-20.016-2.849-38.59-6.437-55.181-10.718    c-9.916-2.56-18.533-5.219-26.007-7.916v-13.379c7.426,2.512,14.983,4.694,22.258,6.572c17.69,4.565,37.534,8.365,58.93,11.34    V487.102z M249.562,494.906c-34.14-0.224-67.08-2.229-97.219-5.839v-14.149c30.263,3.551,63.179,5.522,97.219,5.742V494.906z     M361.785,488.81c-30.089,3.697-63.036,5.778-97.22,6.077V480.64c34.082-0.294,67.005-2.341,97.22-5.975V488.81z M457.976,467.692    c-7.947,2.963-17.277,5.887-28.144,8.692c-16.001,4.129-33.839,7.617-53.043,10.415v-14.103    c20.578-2.928,39.695-6.622,56.792-11.035c7.974-2.057,16.288-4.484,24.396-7.306V467.692z M496.987,438.302    c0,6.252-6.857,14.54-24.007,22.991V448.51c9.104-3.985,17.416-8.563,24.007-13.787V438.302z M496.987,406.42v2.632    c0,6.252-6.857,14.54-24.007,22.991v-4.955h-15.003v11.354c-7.947,2.963-17.277,5.887-28.144,8.692    c-16.001,4.129-33.839,7.617-53.043,10.415v-6.412h-15.003v8.423c-30.089,3.697-63.036,5.778-97.22,6.077v-6.484h-15.003v6.504    c-34.14-0.224-67.08-2.229-97.219-5.839v-8.681H137.34v6.717c-20.016-2.849-38.59-6.438-55.181-10.718    c-9.916-2.559-18.533-5.218-26.007-7.916v-12.13H41.148v5.978c-18.713-8.803-26.145-17.511-26.145-24.015v-92.564    c7.105,5.631,16.207,10.512,26.145,14.708v7.717h15.003v-2.058c7.426,2.512,14.983,4.694,22.258,6.571    c17.69,4.565,37.534,8.365,58.93,11.34v8.195h15.003v-6.277c30.263,3.551,63.179,5.522,97.219,5.742v8.551h15.003v-8.572    c34.082-0.294,67.005-2.341,97.22-5.975v6.531h15.003v-8.499c20.578-2.928,39.695-6.622,56.792-11.035    c7.974-2.057,16.288-4.484,24.396-7.306v2.793h15.003v-8.637c9.104-3.985,17.416-8.563,24.007-13.787V406.42z M56.152,320.983    v-18.196c7.426,2.512,14.983,4.694,22.258,6.571c17.69,4.565,37.534,8.365,58.93,11.34v18.919    c-20.016-2.849-38.59-6.437-55.181-10.718C72.242,326.34,63.625,323.68,56.152,320.983z M249.562,347.421    c-34.14-0.224-67.08-2.229-97.219-5.839v-18.966c30.263,3.551,63.179,5.522,97.219,5.742V347.421z M264.565,347.402v-19.064    c34.082-0.294,67.005-2.341,97.22-5.975v18.962C331.697,345.021,298.749,347.103,264.565,347.402z M376.789,339.314v-18.92    c20.579-2.929,39.695-6.623,56.792-11.036c7.974-2.057,16.288-4.484,24.395-7.306v18.154c-7.947,2.963-17.277,5.887-28.144,8.692    C413.831,333.027,395.993,336.515,376.789,339.314z M496.987,290.817c0,6.252-6.857,14.54-24.007,22.991v-17.6    c9.104-3.985,17.416-8.563,24.007-13.787V290.817z M429.832,294.831c-46.339,11.959-108.076,18.544-173.837,18.544    s-127.498-6.586-173.837-18.544c-49.512-12.778-67.154-28.05-67.154-38.082c0-10.031,17.642-25.304,67.155-38.082    c46.339-11.959,108.076-18.544,173.837-18.544c65.761,0,127.498,6.586,173.837,18.544c49.513,12.778,67.155,28.049,67.155,38.082    C496.988,266.782,479.345,282.053,429.832,294.831z" fill="#f2b016" data-original="#000000" style="" class=""/>
	</g>
</g>
<g xmlns="http://www.w3.org/2000/svg">
	<g>
		<path d="M334.509,220.483l-1.369,14.94c5.632,0.516,11.253,1.097,16.704,1.726l1.719-14.904    C345.996,221.603,340.258,221.01,334.509,220.483z" fill="#f2b016" data-original="#000000" style="" class=""/>
	</g>
</g>
<g xmlns="http://www.w3.org/2000/svg">
	<g>
		<path d="M275.851,217.217l-0.327,15c13.821,0.3,27.581,0.925,40.899,1.856l1.047-14.966    C303.914,218.159,289.911,217.524,275.851,217.217z" fill="#f2b016" data-original="#000000" style="" class=""/>
	</g>
</g>
<g xmlns="http://www.w3.org/2000/svg">
	<g>
		<path d="M111.433,231.026l2.69,14.76c41.603-7.585,90.662-11.594,141.873-11.594v-15.003    C203.897,219.189,153.909,223.282,111.433,231.026z" fill="#f2b016" data-original="#000000" style="" class=""/>
	</g>
</g>
<g xmlns="http://www.w3.org/2000/svg">
	<g>
		<rect x="249.566" y="387.007" width="15.003" height="56.113" fill="#f2b016" data-original="#000000" style="" class=""/>
	</g>
</g>
<g xmlns="http://www.w3.org/2000/svg">
	<g>
		<rect x="137.341" y="378.995" width="15.003" height="56.113" fill="#f2b016" data-original="#000000" style="" class=""/>
	</g>
</g>
<g xmlns="http://www.w3.org/2000/svg">
	<g>
		<rect x="41.149" y="354.949" width="15.003" height="56.113" fill="#f2b016" data-original="#000000" style="" class=""/>
	</g>
</g>
<g xmlns="http://www.w3.org/2000/svg">
	<g>
		<rect x="361.781" y="378.995" width="15.003" height="56.113" fill="#f2b016" data-original="#000000" style="" class=""/>
	</g>
</g>
<g xmlns="http://www.w3.org/2000/svg">
	<g>
		<rect x="457.973" y="354.949" width="15.003" height="56.113" fill="#f2b016" data-original="#000000" style="" class=""/>
	</g>
</g>
<g xmlns="http://www.w3.org/2000/svg">
	<g>
		<path d="M245.955,156.379c-0.617-4.727-3.202-9.018-7.092-11.774L52.789,12.845l-0.208-0.147l-0.212-0.14    c-4.139-2.725-8.941-4.165-13.887-4.165c-8.533,0-16.428,4.253-21.118,11.376c-3.713,5.638-5.007,12.385-3.645,18.996    c1.36,6.612,5.216,12.297,10.854,16.01l0.234,0.154l0.24,0.146l195.018,118.188c2.681,1.624,5.753,2.483,8.886,2.483    c5.103,0,9.903-2.247,13.171-6.166C245.175,165.916,246.571,161.106,245.955,156.379z M230.597,159.969    c-0.42,0.504-1.029,0.771-1.647,0.771c-0.38,0-0.764-0.101-1.109-0.31L32.823,42.242c-4.736-3.119-6.048-9.486-2.93-14.223    c1.973-2.997,5.248-4.623,8.586-4.623c1.938,0,3.898,0.548,5.637,1.693L230.19,156.848    C231.21,157.57,231.398,159.008,230.597,159.969z" fill="#f2b016" data-original="#000000" style="" class=""/>
	</g>
</g>
<g xmlns="http://www.w3.org/2000/svg">
	<g>
		<path d="M509.229,15.862c-4.338-8.508-12.969-13.793-22.522-13.793c-3.964,0-7.931,0.954-11.473,2.761l-0.226,0.115l-0.222,0.123    L275.296,115.464c-4.171,2.309-7.215,6.287-8.35,10.916c-1.136,4.63-0.279,9.566,2.349,13.542c3.185,4.816,8.532,7.69,14.304,7.69    c2.509,0,4.936-0.535,7.213-1.591l206.879-95.918l0.255-0.118l0.25-0.128c6.013-3.067,10.473-8.292,12.557-14.712    C512.837,28.724,512.296,21.876,509.229,15.862z M491.38,36.491L284.5,132.409c-0.29,0.135-0.597,0.199-0.9,0.199    c-0.7,0-1.38-0.344-1.788-0.961c-0.69-1.042-0.344-2.452,0.749-3.057L482.05,18.195c1.494-0.762,3.087-1.123,4.657-1.123    c3.738,0,7.342,2.048,9.156,5.606C498.44,27.73,496.432,33.914,491.38,36.491z" fill="#f2b016" data-original="#000000" style="" class=""/>
	</g>
</g>
<g xmlns="http://www.w3.org/2000/svg">
	<g>
		<rect x="88.14" y="389.537" width="15.003" height="15.003" fill="#f2b016" data-original="#000000" style="" class=""/>
	</g>
</g>
<g xmlns="http://www.w3.org/2000/svg">
	<g>
		<rect x="410.712" y="389.537" width="15.003" height="15.003" fill="#f2b016" data-original="#000000" style="" class=""/>
	</g>
</g>
<g xmlns="http://www.w3.org/2000/svg">
	<g>
		<rect x="193.163" y="404.541" width="15.003" height="15.003" fill="#f2b016" data-original="#000000" style="" class=""/>
	</g>
</g>
<g xmlns="http://www.w3.org/2000/svg">
	<g>
		<rect x="305.689" y="404.541" width="15.003" height="15.003" fill="#f2b016" data-original="#000000" style="" class=""/>
	</g>
</g>
<g xmlns="http://www.w3.org/2000/svg">
</g>
<g xmlns="http://www.w3.org/2000/svg">
</g>
<g xmlns="http://www.w3.org/2000/svg">
</g>
<g xmlns="http://www.w3.org/2000/svg">
</g>
<g xmlns="http://www.w3.org/2000/svg">
</g>
<g xmlns="http://www.w3.org/2000/svg">
</g>
<g xmlns="http://www.w3.org/2000/svg">
</g>
<g xmlns="http://www.w3.org/2000/svg">
</g>
<g xmlns="http://www.w3.org/2000/svg">
</g>
<g xmlns="http://www.w3.org/2000/svg">
</g>
<g xmlns="http://www.w3.org/2000/svg">
</g>
<g xmlns="http://www.w3.org/2000/svg">
</g>
<g xmlns="http://www.w3.org/2000/svg">
</g>
<g xmlns="http://www.w3.org/2000/svg">
</g>
<g xmlns="http://www.w3.org/2000/svg">
</g>
</g></svg>
