<svg fill="none" height="512" viewBox="0 0 24 24" width="512" xmlns="http://www.w3.org/2000/svg"><g fill="rgb(0,0,0)"><path d="m21.7104 2.75c.4143 0 .75.33579.75.75v12.0038c.7107.2944 1.2107.9948 1.2107 1.812v2.421c0 1.0828-.8778 1.9605-1.9606 1.9605-1.0827 0-1.9605-.8777-1.9605-1.9605v-2.421c0-.8171.4998-1.5175 1.2104-1.812v-12.0038c0-.41421.3358-.75.75-.75z"/><path d="m11.6445 3.52631c0-.41422-.3358-.75-.75-.75s-.75.33578-.75.75v1.61017c-.67582.14776-1.30497.55063-1.72458 1.21113l-7.10116 11.17779c-1.163117 1.8308.15214 4.2246 2.32119 4.2246h13.15995c.4142 0 .75-.3358.75-.75s-.3358-.75-.75-.75h-13.15995c-.98593 0-1.58377-1.0881-1.05508-1.9203l7.10116-11.17774c.12086-.19025.27998-.33348.45847-.42997v.4359c0 .41421.3358.75.75.75s.75-.33579.75-.75v-.20098c.0638.06718.1216.14312.1718.22781l5.5385 9.34068c.2112.3563.6713.4738 1.0276.2626.3563-.2113.4739-.6714.2626-1.0277l-5.5384-9.34062c-.3542-.59723-.8794-.99681-1.4621-1.19697z"/></g></svg>