<svg fill="none" height="512" viewBox="0 0 24 24" width="512" xmlns="http://www.w3.org/2000/svg"><g fill="rgb(0,0,0)"><path d="m1.36921 1.09443c.22399-.348426.68802-.449303 1.03645-.225314l7 4.500004c.34843.22399.4493.68802.22531 1.03645-.22398.34843-.68802.4493-1.03645.22531l-7-4.5c-.34842-.22399-.4493-.68802-.22531-1.03645z"/><path clip-rule="evenodd" d="m4.74712 9.00463c1.88472-.47118 4.4487-.75463 7.25298-.75463 2.8043 0 5.3682.28345 7.253.75463.9366.23414 1.7477.52488 2.3428.87661.5448.32206 1.1542.84476 1.1542 1.61876v8.5c0 .774-.6094 1.2967-1.1542 1.6188-.5951.3517-1.4062.6424-2.3428.8766-1.8848.4712-4.4487.7546-7.253.7546-2.80428 0-5.36826-.2834-7.25298-.7546-.93659-.2342-1.74774-.5249-2.3428-.8766-.54486-.3221-1.15423-.8448-1.15423-1.6188v-8.5c0-.774.60937-1.2967 1.15423-1.61876.59506-.35173 1.40621-.64247 2.3428-.87661zm-1.99703 4.30007.00001 4.1733c.00965.0192.07331.146.41746.3495.41699.2464 1.07031.4944 1.94337.7127 1.73456.4336 4.17059.7098 6.88917.7098 2.7186 0 5.1546-.2762 6.8892-.7098.873-.2183 1.5263-.4663 1.9433-.7127.3442-.2035.4078-.3303.4175-.3495v-4.1733c-.5487.2697-1.2309.4991-1.997.6907-1.8848.4712-4.4487.7546-7.253.7546-2.80428 0-5.36826-.2834-7.25298-.7546-.76616-.1916-1.44837-.421-1.99703-.6907zm18.50001 6c-.5487.2697-1.2309.4991-1.997.6907-1.8848.4712-4.4487.7546-7.253.7546-2.80428 0-5.36826-.2834-7.25298-.7546-.76616-.1916-1.44837-.421-1.99703-.6907l.00001.6733c.00965.0192.07331.146.41746.3495.41699.2464 1.07031.4944 1.94337.7127 1.73456.4336 4.17059.7098 6.88917.7098 2.7186 0 5.1546-.2762 6.8892-.7098.873-.2183 1.5263-.4663 1.9433-.7127.3442-.2035.4078-.3303.4175-.3495z" fill-rule="evenodd"/><path d="m21.6142 1.35688c.3552-.21311.8159-.09794 1.029.25725.2131.35518.0979.81588-.2572 1.02899l-7.5 4.5c-.3552.21311-.8159.09794-1.029-.25725-.2131-.35518-.098-.81588.2572-1.02899z"/></g></svg>